<svg width="48" height="66" viewBox="0 0 48 66" fill="none" xmlns="http://www.w3.org/2000/svg">
<g clip-path="url(#clip0_283_53)">
<path d="M24 1C30.2287 1 35.9554 4.4697 40.1621 10.2539C44.368 16.0371 47 24.0759 47 33C47 41.9241 44.368 49.9629 40.1621 55.7461C35.9554 61.5303 30.2287 65 24 65C17.7713 65 12.0446 61.5303 7.83789 55.7461C3.63203 49.9629 1 41.9241 1 33C1 24.0759 3.63203 16.0371 7.83789 10.2539C12.0446 4.4697 17.7713 1 24 1Z" stroke="#BABABA"/>
<path d="M12.0503 44.2386C11.9817 43.988 11.9768 43.7437 12.0761 43.5051C12.2118 43.1789 12.3834 42.8703 12.5517 42.5604C12.8262 42.0548 13.1029 41.5504 13.3773 41.0448C13.4234 40.9598 13.475 40.8765 13.5043 40.7746C13.3339 40.721 13.1825 40.6412 13.0433 40.5343C12.9192 40.4389 12.8635 40.3217 12.8817 40.1676C12.8945 40.0592 12.9211 39.9534 12.9617 39.8531C13.1121 39.4808 13.2461 39.103 13.3506 38.7154C13.4046 38.5148 13.5265 38.3728 13.7009 38.266C13.7585 38.2307 13.8153 38.209 13.8824 38.2026C14 38.1915 13.998 38.1886 14.003 38.0637C14.0125 37.8271 13.973 37.5968 13.8846 37.3797C13.8016 37.1756 13.8106 36.9867 13.8913 36.7843C14.0224 36.4557 14.1885 36.1449 14.3478 35.8306C14.5564 35.4194 14.6926 34.9868 14.7191 34.5265C14.7344 34.2599 14.9013 34.1747 15.0777 34.135C15.2284 34.101 15.3808 34.1023 15.5309 34.1337C15.6166 34.1517 15.6525 34.1211 15.6621 34.0411C15.6652 34.0143 15.6706 33.9876 15.6769 33.9613C15.7208 33.7799 15.7006 33.6337 15.5616 33.4757C14.645 32.4343 14.0805 31.2144 13.7716 29.8705C13.6102 29.1681 13.4784 28.4603 13.3705 27.7481C13.3558 27.6512 13.3243 27.5623 13.2776 27.4743C12.8528 26.6734 12.5543 25.8288 12.3947 24.9353C12.2721 24.2491 12.2251 23.5581 12.2734 22.8638C12.3376 21.939 12.5449 21.0454 12.9095 20.1897C13.2568 19.3744 13.739 18.6409 14.2772 17.9426C14.771 17.3021 15.3161 16.7036 15.8419 16.0896C16.2935 15.5622 16.8956 15.2824 17.5607 15.1234C17.6875 15.0931 17.8147 15.0632 17.9431 15.0407C18.0244 15.0264 18.0829 14.9901 18.1237 14.9194C18.1617 14.8537 18.2058 14.7914 18.2426 14.7251C18.3414 14.5476 18.3869 14.364 18.3102 14.1635C18.297 14.1291 18.2625 14.0848 18.3077 14.044C18.3532 14.0029 18.3964 14.0256 18.4438 14.0418C18.5787 14.0879 18.6694 14.1889 18.7639 14.2865C18.8767 14.4031 18.8595 14.3862 18.9639 14.2932C19.4902 13.8251 20.0806 13.4676 20.7627 13.271C20.862 13.2425 20.9603 13.2109 21.0586 13.1789C21.1205 13.1588 21.1763 13.1563 21.2182 13.2166C21.2584 13.2745 21.22 13.3244 21.1899 13.3628C21.1305 13.439 21.0592 13.5062 20.9894 13.5809C21.0552 13.6013 21.0987 13.5594 21.1451 13.5381C21.7993 13.2383 22.4856 13.0568 23.2028 13.0087C23.6389 12.9794 24.0725 13.022 24.4893 13.1689C24.5969 13.2069 24.7038 13.2498 24.7906 13.3267C24.834 13.3651 24.891 13.4062 24.8571 13.4764C24.8251 13.5426 24.7698 13.5556 24.6939 13.5477C24.3916 13.5163 24.0902 13.4678 23.7846 13.4789C23.5793 13.4864 23.3744 13.4993 23.1759 13.5785C23.3797 13.6084 23.5833 13.6402 23.7873 13.668C24.218 13.7267 24.6452 13.8083 25.0775 13.856C25.5175 13.9045 25.9585 13.8919 26.3983 13.8756C27.072 13.8507 27.7443 13.7861 28.4196 13.8048C28.6709 13.8117 28.9173 13.8511 29.1538 13.9394C29.2192 13.9639 29.3078 13.9859 29.3121 14.0628C29.3172 14.1523 29.2209 14.1725 29.1542 14.205C29.1176 14.2228 29.0777 14.2339 29.0427 14.2591C29.2564 14.2624 29.4664 14.2478 29.6759 14.2371C30.0356 14.2188 30.3932 14.2325 30.7511 14.263C30.904 14.2761 31.0374 14.3345 31.1391 14.4483C31.2512 14.5737 31.3609 14.7019 31.4414 14.8514C31.5289 15.0139 31.611 15.18 31.7092 15.3359C31.7628 15.4209 31.7317 15.4731 31.6855 15.5385C31.6355 15.6092 31.5744 15.5928 31.511 15.572C31.4297 15.5452 31.3492 15.5159 31.2554 15.4833C31.2507 15.5473 31.2862 15.5838 31.308 15.6225C31.4767 15.922 31.5594 16.248 31.5677 16.5862C31.5774 16.9831 31.4828 17.3598 31.2642 17.6987C31.0874 17.9726 30.8886 18.2288 30.6476 18.4566C30.7953 18.6649 30.9428 18.8659 31.0742 19.078C31.5767 19.8886 31.9731 20.7484 32.2962 21.6447C32.4618 22.1036 32.6395 22.5578 32.773 23.0277C32.8099 23.1576 32.8916 23.2691 32.925 23.4037C32.9821 23.6342 32.924 23.8309 32.787 24.0132C32.7577 24.0523 32.7294 24.0955 32.6909 24.1234C32.4884 24.2699 32.5405 24.4781 32.5597 24.6728C32.5703 24.7806 32.6205 24.8021 32.7339 24.7836C32.9062 24.7555 33.0751 24.7153 33.2344 24.6419C33.2542 24.6328 33.2739 24.6235 33.2942 24.6158C33.4006 24.5752 33.4907 24.5773 33.502 24.6256C33.5211 24.7071 33.4819 24.7712 33.4226 24.8259C33.2051 25.0259 32.9663 25.1939 32.694 25.3121C32.6545 25.3293 32.616 25.3487 32.5778 25.3667C32.5799 25.4279 32.6067 25.4745 32.634 25.521C33.0283 26.1901 33.4382 26.8495 33.8543 27.5053C34.1519 27.9741 34.4737 28.4251 34.8382 28.8436C34.9506 28.9728 34.9628 29.108 34.9268 29.2509C34.844 29.5795 34.6441 29.7957 34.2929 29.8428C34.1369 29.8638 33.9803 29.8836 33.8234 29.8945C33.6919 29.9035 33.5656 29.9301 33.4399 29.9667C33.2487 30.0223 33.0516 30.2662 33.0592 30.4611C33.0661 30.641 33.1049 30.8155 33.2156 30.9654C33.264 31.0309 33.31 31.0984 33.3631 31.1599C33.4587 31.2704 33.4546 31.3858 33.391 31.5068C33.3237 31.6348 33.2235 31.7313 33.105 31.8135C33.0256 31.8687 32.9319 31.9034 32.8354 32.0037C32.9091 32.0639 32.9877 32.1157 33.0507 32.1821C33.1754 32.3137 33.2001 32.4809 33.1747 32.6512C33.1562 32.7753 33.0688 32.8611 32.9636 32.9275C32.8212 33.0175 32.6813 33.1114 32.5375 33.199C32.4415 33.2574 32.4088 33.3386 32.4214 33.4463C32.4328 33.5442 32.4574 33.6376 32.4938 33.7289C32.5921 33.9759 32.6856 34.2247 32.7866 34.4704C32.939 34.8411 32.8974 35.1912 32.6834 35.5243C32.6071 35.6429 32.5277 35.7599 32.4433 35.8729C32.3225 36.0346 32.1571 36.1343 31.9669 36.1973C31.5199 36.3453 31.06 36.3593 30.5957 36.3331C30.0345 36.3014 29.4762 36.3283 28.9217 36.422C28.7885 36.4446 28.7636 36.4829 28.8135 36.6052C28.8379 36.6649 28.8738 36.7207 28.9092 36.7752C29.0187 36.9435 29.0517 37.1241 29.0017 37.3185C28.9665 37.455 28.9399 37.5948 28.8905 37.7261C28.7736 38.0372 28.72 38.3595 28.6645 38.6855C28.629 38.894 28.6777 39.0112 28.842 39.1291C29.0771 39.2978 29.3186 39.4511 29.582 39.5714C29.7053 39.6277 29.8249 39.6925 29.9456 39.7547C30.0448 39.8058 30.0953 39.8868 30.1117 39.9987C30.1914 40.5463 30.2818 41.0921 30.3951 41.6341C30.5123 42.1944 30.6906 42.7342 30.9341 43.252C31.0154 43.4247 31.0825 43.6026 31.1342 43.7847C31.174 43.9245 31.1988 44.0726 31.0771 44.1967C31.0245 44.2503 30.9668 44.2776 30.8899 44.2782C30.7726 44.2792 30.6651 44.2401 30.5555 44.2095C29.9531 44.0415 29.3569 43.8551 28.7864 43.5953C28.7498 43.5786 28.7125 43.5461 28.6641 43.5633C28.662 43.6091 28.6961 43.6308 28.7184 43.6592C28.9099 43.9032 29.1247 44.1274 29.3445 44.3445C30.1423 45.1325 30.8672 45.9813 31.5331 46.8824C31.9493 47.4456 32.4261 47.9604 32.8709 48.501C33.1124 48.7944 33.3507 49.0902 33.5458 49.418C33.7324 49.7316 33.8759 50.065 34.0116 50.4024C34.0496 50.497 34.0318 50.5743 33.9655 50.6563C33.8422 50.8084 33.6984 50.8172 33.5286 50.7564C32.9863 50.5619 32.4538 50.3439 31.9305 50.1031C30.8502 49.606 29.8522 48.9676 28.8527 48.3307C27.6515 47.5654 26.4537 46.7942 25.2215 46.0789C23.5996 45.1373 21.8786 44.4352 20.0511 44.0012C19.2306 43.8063 18.3993 43.6748 17.5573 43.6094C17.0142 43.5672 16.4705 43.5441 15.927 43.5629C14.9159 43.598 13.9081 43.6721 12.921 43.9155C12.6887 43.9729 12.4594 44.0401 12.2354 44.1247C12.1703 44.1494 12.1025 44.1701 12.0503 44.2386Z" fill="white"/>
</g>
<defs>
<clipPath id="clip0_283_53">
<rect width="48" height="66" fill="white"/>
</clipPath>
</defs>
</svg>
