<svg width="48" height="66" viewBox="0 0 48 66" fill="none" xmlns="http://www.w3.org/2000/svg">
<g clip-path="url(#clip0_283_57)">
<path d="M13.5973 41.1796C13.3095 41.3325 13.0628 41.344 13.1167 41.3932C14.8412 41.1685 16.7695 42.783 18.3725 43.6053C19.5587 44.4412 20.7354 45.5157 21.7064 46.5563C22.3471 47.2429 22.9423 47.969 23.5408 48.6918C23.7069 48.8924 24.0464 49.099 24.2868 49.2058C24.4512 49.2789 24.4923 49.32 24.705 49.3611C24.8624 49.3611 24.9035 49.4023 25.109 49.32C25.2324 49.2707 25.2631 49.2239 25.2961 49.1556C25.3557 49.0322 25.4041 48.8608 25.308 48.6655C25.2763 48.6012 25.2911 48.5288 25.2961 48.4588C25.325 48.053 25.3486 47.6467 25.3382 47.2398C25.3134 46.2653 25.1803 45.3136 24.705 44.4412C24.6409 44.3238 24.6457 44.2471 24.7349 44.1524C25.2255 43.6307 25.6511 43.0559 26.0927 42.4938C26.6194 41.8235 27.3 41.3954 28.1466 41.2343C28.7964 41.1107 29.4522 41.0863 30.1107 41.0851C30.6689 41.0841 31.2278 41.1287 31.7854 41.0709C32.1019 41.0381 32.4047 40.9587 32.6768 40.786C33.1491 40.4863 33.4098 39.9135 33.2675 39.366C33.1397 38.8745 33.2359 38.4851 33.6389 38.1729C33.7321 38.1007 33.793 37.9982 33.8454 37.8943C33.9537 37.6796 33.9116 37.4576 33.7398 37.288C33.7124 37.261 33.6659 37.2459 33.6697 37.1949C34.2445 36.9575 34.3765 36.5516 34.0523 36.0121C33.9742 35.882 33.8946 35.7535 33.8361 35.6126C33.754 35.4147 33.7749 35.2421 33.9331 35.0862C34.0571 34.9639 34.1803 34.838 34.2846 34.6992C34.6467 34.2177 34.5206 33.6093 33.9998 33.3072C33.854 33.2227 33.6971 33.1572 33.55 33.0747C33.1182 32.8326 32.8344 32.4952 32.8758 31.9679C32.891 31.7764 32.9372 31.5892 33.0033 31.407C33.1944 30.8798 33.3483 30.3459 33.3654 29.7779C33.3891 28.9931 33.218 28.2427 32.9941 27.4992C32.9751 27.4362 32.9388 27.3744 32.9743 27.2983C33.2216 27.744 33.6281 28.1342 33.4251 28.7602C33.6595 28.5444 33.6912 28.2825 33.7634 28.0002C33.9296 28.4322 33.9494 28.8476 33.9703 29.286L33.9714 29.3093C34.1717 29.0822 34.2683 28.8378 34.3195 28.5714C34.4171 28.0638 34.3313 27.576 34.1565 27.0986C33.8438 26.2442 33.2517 25.6007 32.5771 25.0197C32.5406 24.9883 32.4871 24.9705 32.4761 24.9124C33.3105 24.7077 33.6903 24.3583 33.614 23.8492C33.3595 24.0561 33.0626 24.0699 32.7639 24.0434C32.489 24.0189 32.2282 23.9278 31.9754 23.8189C31.7771 23.7335 31.5874 23.6303 31.4121 23.5042C30.7059 22.9965 29.9151 22.6571 29.1181 22.3238C28.6455 22.126 28.1948 21.8748 27.6997 21.7315C26.6953 21.4407 25.671 21.3808 24.635 21.4834C24.3437 21.5123 24.0543 21.5582 23.7202 21.6021C24.0124 21.3717 24.1908 21.1122 24.283 20.7422C23.7111 21.2491 23.0522 21.4223 22.3575 21.4813C21.8011 21.5286 21.2385 21.518 20.6854 21.5866C19.7206 21.7062 18.7914 21.9254 18.2373 22.8505C18.2083 22.8989 18.1692 22.9123 18.1065 22.9073C17.1716 22.8332 16.3321 23.1303 15.5536 23.6063C14.7043 24.1256 14.1209 24.9049 13.5829 25.72C13.5602 25.7545 13.5308 25.7953 13.5595 25.8726C14.0101 25.3771 14.4639 24.9043 14.992 24.5116C15.5221 24.1174 16.0799 23.7752 16.7391 23.5613C16.7236 23.6047 16.7234 23.6132 16.7195 23.6153C16.6898 23.632 16.6604 23.6497 16.6292 23.6632C15.8499 24.0013 15.2505 24.5378 14.8184 25.2692C14.5143 25.7838 14.2158 26.3035 13.8325 26.7665C13.3085 27.3992 12.702 27.9076 11.8616 28.0628C11.8194 28.0707 11.7685 28.0721 11.7304 28.1316C11.8213 28.178 11.9174 28.1936 12.0127 28.2121C12.4148 28.2904 12.8146 28.2731 13.2048 28.1565C13.3729 28.1063 13.3889 28.1613 13.3634 28.3018C13.3152 28.5668 13.2508 28.8272 13.1102 29.0595C12.6323 29.8493 11.9309 30.3628 11.0762 30.6844C10.9758 30.7222 10.8697 30.7486 10.7441 30.8373C11.4259 30.7733 11.9961 30.5042 12.5684 30.2244C12.5733 30.261 12.5787 30.2728 12.5756 30.2816C12.3282 30.9887 12.3058 31.6941 12.5907 32.398C12.6015 32.4248 12.6097 32.4537 12.6128 32.4823C12.6711 33.0101 12.9295 33.4495 13.2214 33.8771C13.4189 34.1663 13.5961 34.4674 13.6825 34.8137C13.7817 35.2114 13.7153 35.5513 13.3661 35.8039C13.36 35.8083 13.3615 35.8234 13.3575 35.8437C14.0662 35.7543 14.4314 35.3368 14.5063 34.606C14.7971 34.9848 15.0156 35.3404 15.1127 35.7562C15.2651 36.4085 14.988 36.8773 14.3448 37.0695C14.2323 37.1031 14.1184 37.1325 13.9654 37.1748C14.8821 37.2635 15.7097 36.7029 15.8955 35.8984C15.9108 35.9078 15.9311 35.9131 15.9385 35.9258C16.1828 36.3481 16.3855 36.7864 16.4056 37.2837C16.4338 37.9812 16.1347 38.4395 15.4952 38.6987C15.4815 38.7043 15.4724 38.7212 15.4519 38.7422C15.9194 38.832 16.3689 38.8668 16.7695 38.5678C17.1579 38.2779 17.3122 37.8473 17.4405 37.3996C17.5785 37.7738 17.6818 38.1454 17.6204 38.5424C17.5627 38.9157 17.2946 39.1307 17.0008 39.3351C17.5408 39.5048 18.2318 39.1249 18.6689 38.4127C18.6431 38.8274 18.5956 39.1979 18.3725 39.5233C18.251 39.7006 18.0943 39.7701 17.8755 39.7132C17.5535 39.6296 17.2235 39.5753 16.9041 39.4834C16.6097 39.3989 16.3962 39.4862 16.2123 39.7133C15.9005 40.0984 15.5029 40.3669 15.0389 40.5372C14.8585 40.6034 14.673 40.6555 14.4913 40.7185C14.1081 40.8512 14.214 40.8418 13.885 41.0151C13.6509 41.1384 13.9841 40.974 13.5973 41.1796Z" fill="white"/>
<path d="M24 1C30.2287 1 35.9554 4.4697 40.1621 10.2539C44.368 16.0371 47 24.0759 47 33C47 41.9241 44.368 49.9629 40.1621 55.7461C35.9554 61.5303 30.2287 65 24 65C17.7713 65 12.0446 61.5303 7.83789 55.7461C3.63203 49.9629 1 41.9241 1 33C1 24.0759 3.63203 16.0371 7.83789 10.2539C12.0446 4.4697 17.7713 1 24 1Z" stroke="#BABABA"/>
</g>
<defs>
<clipPath id="clip0_283_57">
<rect width="48" height="66" fill="white"/>
</clipPath>
</defs>
</svg>
