<svg width="48" height="66" viewBox="0 0 48 66" fill="none" xmlns="http://www.w3.org/2000/svg">
<g clip-path="url(#clip0_283_49)">
<path d="M24 1C30.2287 1 35.9554 4.4697 40.1621 10.2539C44.368 16.0371 47 24.0759 47 33C47 41.9241 44.368 49.9629 40.1621 55.7461C35.9554 61.5303 30.2287 65 24 65C17.7713 65 12.0446 61.5303 7.83789 55.7461C3.63203 49.9629 1 41.9241 1 33C1 24.0759 3.63203 16.0371 7.83789 10.2539C12.0446 4.4697 17.7713 1 24 1Z" stroke="#BABABA"/>
<path d="M39 27.9052C38.7828 28.3363 38.5113 28.5519 38.0225 28.5519C37.0451 28.6058 36.1219 28.6597 35.1444 28.498C34.9815 28.498 34.8729 28.498 34.7643 28.498C34.9815 28.9292 35.2531 29.3603 35.4703 29.7914C36.0676 31.3543 35.8504 32.9711 34.5471 34.1568C33.6239 35.019 32.6465 35.7196 31.4518 36.0969C30.3114 36.4741 29.2254 36.2047 28.3022 35.4502C28.2479 35.3963 28.2479 35.3963 28.1393 35.3424C28.085 35.8274 28.085 36.3125 28.2479 36.7436C28.628 37.8215 29.2254 38.8454 29.8227 39.8694C29.877 39.9233 29.9856 39.9233 30.0399 39.9233C30.42 39.9233 30.8545 39.9233 31.2346 39.9772C31.9405 40.085 32.375 40.5161 32.5379 41.1628C32.7008 41.6479 32.7551 42.1868 32.8637 42.6718C32.918 42.8335 32.9723 43.0491 33.0266 43.2107C33.1352 43.5341 33.2981 43.9113 33.2981 44.2886C33.3524 44.8275 33.0266 45.2587 32.5379 45.4742C31.9405 45.7976 31.2889 45.9593 30.6372 46.0671C29.9313 46.1209 29.2254 46.3365 28.628 46.7138C27.8135 47.1988 26.9446 47.6838 26.13 48.1689C25.2612 48.7078 24.5552 49.4084 24.0122 50.2168C23.4692 50.9713 22.9261 51.7258 22.3831 52.5342C22.1659 52.9114 22.003 53.3426 21.8401 53.7737C21.7858 53.8815 21.7858 54.0432 21.6228 53.9893C21.5685 53.9893 21.4599 53.8276 21.4599 53.7198C21.5142 53.0731 21.5142 52.4264 21.6228 51.8336C21.7315 51.4024 21.9487 51.0252 22.1659 50.6479C23.089 49.0312 24.1208 47.5222 25.3698 46.1748C25.7499 45.7437 26.13 45.3665 26.5645 44.9892C26.6188 44.9353 26.6731 44.8814 26.7274 44.8275C24.4466 46.4443 22.7632 48.6 21.3513 51.0252C20.8083 50.2707 20.6997 49.4084 20.8626 48.4922C21.2427 46.4443 22.2745 44.7736 23.8493 43.3724C24.5009 42.7796 25.2069 42.1868 26.0214 41.7556C26.0757 41.7017 26.13 41.6478 26.13 41.5401C26.0757 41.5401 25.9671 41.4862 25.9128 41.5401C25.4784 41.7556 25.044 42.0251 24.6095 42.2946C24.1751 42.564 23.795 42.8874 23.3606 43.1568C23.1977 42.6718 23.089 42.2407 22.9261 41.7556C22.6003 40.8934 22.2745 40.085 21.8944 39.2766C21.5685 38.5221 20.9712 38.2526 20.211 38.1448C19.1792 37.9831 18.1474 38.1987 17.1157 38.3604C16.3554 38.4682 15.6495 38.6837 14.8892 38.576C14.2919 38.4682 13.8031 38.2526 13.4773 37.7137C13.2601 37.3364 13.2601 36.9592 13.3687 36.5819C13.423 36.3664 13.4773 36.1508 13.5859 35.9352C13.7488 35.4502 13.6402 35.1807 13.2058 34.9651C13.0972 34.9113 12.88 34.8574 12.8257 34.7496C12.7714 34.534 12.7171 34.2645 12.7714 34.049C12.8257 33.8873 13.0429 33.7256 13.2058 33.6178C13.1515 33.5639 13.0429 33.51 12.9886 33.51C12.6628 33.4023 12.6085 33.0789 12.5541 32.8094C12.5541 32.7555 12.6085 32.6478 12.6628 32.54C13.2601 31.8933 13.2601 31.4082 12.2283 31.2465C12.1197 31.2465 11.9568 31.1927 11.8482 31.1388C11.4138 31.031 11.1966 30.6537 11.3595 30.2226C11.5767 29.7375 11.7939 29.2525 12.0654 28.7675C12.3369 28.2286 12.5541 27.6896 12.8257 27.0968C13.1515 26.3962 13.2058 25.6956 12.9343 24.995C12.6628 24.2944 12.8257 23.6477 12.88 22.9471C12.88 22.7315 12.9343 22.5698 12.9886 22.3542C12.3369 22.1387 11.6853 21.9231 11.0336 21.7075C9.78466 21.2764 8.53568 20.7913 7.39531 20.0368C6.96088 19.7135 6.85227 19.2824 7.2324 18.9051C7.66682 18.4201 8.20986 18.2045 8.8072 18.2045C9.67606 18.1506 10.5992 18.1506 11.4681 18.2045C12.6628 18.2584 13.8574 18.3662 14.9978 18.474C15.9753 18.5817 16.9527 18.6895 17.8759 18.8512C19.505 19.1207 21.1341 19.3901 22.7089 19.7135C22.9261 19.7674 23.089 19.8213 23.3063 19.8213C23.3606 19.8213 23.4692 19.7674 23.5235 19.7674C23.4692 19.7135 23.4149 19.6596 23.3606 19.6057C22.8718 19.3901 22.3831 19.1746 21.8944 19.0129C20.5368 18.5279 19.1792 18.0967 17.8216 17.7734C16.8441 17.5578 15.921 17.45 14.9435 17.2344C14.8349 17.2344 14.7263 17.1805 14.5634 17.1805C14.672 17.0727 14.7806 16.965 14.8892 16.8572C16.1925 15.5638 17.6044 14.4859 19.2335 13.7314C20.5368 13.0847 21.9487 12.923 23.4149 13.0308C25.1526 13.1386 26.836 13.4619 28.4108 14.1086C30.2571 14.8631 31.8319 15.8871 33.0266 17.45C33.4067 17.935 33.6782 18.474 33.7869 19.1207H33.8412C33.8955 18.1506 33.9498 17.1266 34.0041 16.1566C34.0041 16.1566 34.0041 16.1566 34.0584 16.1566C34.1127 16.5877 34.167 17.0189 34.167 17.45C34.2213 18.2045 34.2213 18.959 34.2213 19.7674C34.2213 19.9291 34.2213 20.0907 34.167 20.1985C34.167 20.4141 34.0584 20.6297 34.3299 20.7913C34.3842 20.7913 34.3842 20.8991 34.3842 21.0069C34.71 20.468 35.0358 19.9291 35.3617 19.3901C35.7418 18.7973 36.2305 18.2584 36.8822 17.8811C37.0451 17.7734 37.1537 17.7734 37.2623 17.935C37.751 18.5817 37.751 19.2285 37.5338 19.9291C37.2623 20.6836 36.7736 21.3303 36.1762 21.8692C36.0676 21.977 35.959 22.0309 35.9047 22.1387C36.2848 22.1926 36.6106 22.2465 36.9908 22.3542C37.3166 22.462 37.5881 22.6776 37.6967 23.0548C37.8053 23.3782 37.6967 23.6477 37.4795 23.9171C37.4252 23.971 37.3709 24.0788 37.4252 24.1327C37.5881 24.6716 37.3709 25.1567 37.0451 25.5339C36.9908 25.5878 36.9365 25.6956 36.8279 25.7495C37.2623 26.0189 37.6967 26.2884 38.0768 26.6118C38.4027 26.8273 38.7828 27.0429 39 27.4202C39 27.6357 39 27.7974 39 27.9052ZM27.379 20.1985L27.3247 20.2524C27.379 20.3063 27.4333 20.4141 27.4876 20.468C28.5194 21.492 29.7141 22.0848 31.2346 22.0848C31.3432 22.0848 31.5061 22.1387 31.6147 22.2465C31.7776 22.3542 31.8862 22.3542 32.0491 22.2465C32.2121 22.1387 32.1577 21.977 32.0491 21.8692C31.9948 21.7614 31.9405 21.5997 31.9405 21.4381C32.0491 19.8213 31.3432 18.6356 29.9313 18.0428C29.6055 17.8811 29.3883 17.9889 29.3883 18.3662C29.3883 19.0129 29.6598 19.5518 29.9856 20.0907C30.2571 20.5758 30.5829 21.0608 30.9088 21.5458C29.6055 21.3303 28.4651 20.8991 27.379 20.1985ZM36.7193 24.5638C36.4477 24.5099 36.1762 24.51 35.9047 24.4022C35.7418 24.3483 35.5246 24.1866 35.5246 24.0249C35.4703 23.7555 35.7961 23.7555 35.959 23.7016C36.1762 23.5938 36.4477 23.5399 36.6649 23.4321C36.6649 23.3782 36.6649 23.3782 36.6649 23.3243C36.502 23.2704 36.2848 23.2165 36.1219 23.2165C35.5246 23.3243 34.9815 23.4321 34.3842 23.5399C34.2213 23.5938 34.0584 23.6477 33.8412 23.7555C34.5471 24.2405 35.2531 24.6716 35.9047 25.1028C35.959 25.1567 36.0676 25.1567 36.1219 25.1567C36.3934 25.2106 36.7193 24.8333 36.7193 24.5638ZM37.0451 18.2045C36.0133 19.0129 35.5789 20.1446 35.0901 21.2225C35.3617 21.0608 35.5789 20.8991 35.7961 20.7375C36.2305 20.3602 36.7193 19.983 36.9908 19.4979C37.2623 19.0668 37.3166 18.6356 37.0451 18.2045Z" fill="white"/>
</g>
<defs>
<clipPath id="clip0_283_49">
<rect width="48" height="66" fill="white"/>
</clipPath>
</defs>
</svg>
